<svg width="290" height="59" viewBox="0 0 290 59" fill="none" xmlns="http://www.w3.org/2000/svg">
<g clip-path="url(#clip0_5_162)">
<path d="M226.563 25.995H213.992V23.3663H224.583C225.677 23.3663 226.563 24.2513 226.563 25.3437V25.995Z" fill="#FF1A03"/>
<path d="M224.434 35.6337H223.674C223.654 35.6337 223.636 35.6161 223.636 35.5957V25.4489C223.636 25.4284 223.654 25.4109 223.674 25.4109H226.522C226.542 25.4109 226.56 25.4284 226.56 25.4489V33.5102C226.562 34.6815 225.609 35.6337 224.434 35.6337Z" fill="#FF1A03"/>
<path d="M224.224 33.005H213.992V35.6337H224.224V33.005Z" fill="#FF1A03"/>
<path d="M217.208 25.4109H213.992V33.297H217.208V25.4109Z" fill="#FF1A03"/>
<path d="M239.425 23.3663H231.825V25.995H239.425V23.3663Z" fill="#FF1A03"/>
<path d="M237.964 35.6337C237.157 35.6337 236.502 34.9794 236.502 34.1733V26.2871C236.502 25.481 237.157 24.8267 237.964 24.8267C238.771 24.8267 239.425 25.481 239.425 26.2871V34.1733C239.425 34.9794 238.771 35.6337 237.964 35.6337Z" fill="#FF1A03"/>
<path d="M237.671 33.005H229.486V35.6337H237.671V33.005Z" fill="#FF1A03"/>
<path d="M230.363 35.6337H229.454C228.34 35.6337 227.44 34.7311 227.44 33.6212V30.3762H230.363V35.6337Z" fill="#FF1A03"/>
<path d="M17.9554 34.7574H48.1394C48.078 41.7118 48.0166 48.6662 47.9523 55.6206C51.5539 55.571 55.1555 55.5213 58.7601 55.4717V23.9505H7.89314V55.4717C7.89314 55.4717 18.0724 55.5798 18.0753 55.4775C18.0753 55.4746 18.0695 55.4717 18.0665 55.4717C17.8853 55.4074 17.8297 49.2533 17.9554 34.7574Z" fill="#F9EFF6"/>
<path d="M59.0524 25.9951V4.3812H48.5282V25.9951H17.5403V4.3812H7.89314V25.9951" fill="#F9EFF6"/>
<path d="M115.474 24.5347H73.9617V34.1733H115.474V24.5347Z" fill="#F9EFF6"/>
<path d="M114.889 44.9802H75.1311V54.6188H114.889V44.9802Z" fill="#F9EFF6"/>
<path d="M115.474 4.08911H73.9617V13.7277H115.474V4.08911Z" fill="#F9EFF6"/>
<path d="M75.6543 54.6188H75.7157V4.08911H75.6543C69.5532 4.08911 64.6069 9.03109 64.6069 15.1268V43.5841C64.6069 49.6768 69.5532 54.6188 75.6543 54.6188Z" fill="#F9EFF6"/>
<path d="M125.375 4.08911H125.451C128.337 4.08911 130.675 6.42575 130.675 9.30857V54.6188H120.151V9.30857C120.151 6.42575 122.49 4.08911 125.375 4.08911Z" fill="#F9EFF6"/>
<path d="M166.385 54.6188H166.297C163.575 54.6188 161.371 52.4165 161.371 49.6973V4.08911H171.31V49.6973C171.31 52.4165 169.106 54.6188 166.385 54.6188Z" fill="#F9EFF6"/>
<path d="M121.8 9.95114L126.337 5.41807C127.015 4.74045 128.112 4.74045 128.79 5.41807L169.255 45.8477C169.934 46.5253 169.934 47.6206 169.255 48.2982L164.718 52.8313C164.04 53.5089 162.944 53.5089 162.266 52.8313L121.8 12.3988C121.122 11.7241 121.122 10.6258 121.8 9.95114Z" fill="#F9EFF6"/>
<path d="M187.097 4.08911H176.865V54.6188H187.097V4.08911Z" fill="#F9EFF6"/>
<path d="M200.837 23.9505H185.05V34.1733H200.837V23.9505Z" fill="#F9EFF6"/>
<path d="M237.525 54.6188H283.861V44.9802H237.525C234.862 44.9802 232.702 47.1387 232.702 49.7995C232.702 52.4603 234.862 54.6188 237.525 54.6188Z" fill="#F9EFF6"/>
<path d="M279.037 13.7277H232.702V4.08911H279.037C281.701 4.08911 283.861 6.24758 283.861 8.90842C283.861 11.5693 281.701 13.7277 279.037 13.7277Z" fill="#F9EFF6"/>
<path d="M282.797 12.1125L239.352 53.1993C238.162 54.3267 236.283 54.2742 235.157 53.0854L233.786 51.6367C232.237 50.001 232.307 47.4191 233.944 45.871L276.579 5.5495C278.017 4.18842 280.286 4.25267 281.648 5.6897L282.937 7.05079C284.299 8.4849 284.235 10.7514 282.797 12.1125Z" fill="#F9EFF6"/>
<path d="M227.44 13.7277H211.946V6.51337C211.946 5.17565 213.033 4.08911 214.372 4.08911H227.44V13.7277Z" fill="#F9EFF6"/>
<path d="M227.44 54.6188H214.173C212.787 54.5195 211.805 54.0989 211.244 53.7981C210.379 53.3366 209.814 52.7962 209.005 52.0076C207.964 50.9941 207.289 50.1208 207.102 49.8813C206.224 48.7539 204.891 47.1211 202.804 44.7787C211.016 44.8283 219.231 44.875 227.442 44.9247V54.6188H227.44Z" fill="#F9EFF6"/>
<path d="M217.627 45.6754L200.303 27.3871L192.899 34.3881L210.223 52.6765L217.627 45.6754Z" fill="#F9EFF6"/>
<path d="M213.069 4.53093L192.679 24.903L199.539 31.7577L219.93 11.3856L213.069 4.53093Z" fill="#F9EFF6"/>
</g>
<defs>
<clipPath id="clip0_5_162">
<rect width="290" height="59" fill="white"/>
</clipPath>
</defs>
</svg>
